<svg xmlns="http://www.w3.org/2000/svg" width="84" height="180" fill="none" viewBox="0 0 84 180">
  <ellipse cx="17.88" cy="73.445" fill="#593D2C" rx="9.559" ry="20.418" transform="rotate(19.693 17.88 73.445)"/>
  <ellipse cx="47.597" cy="73.938" fill="#593D2C" rx="9.559" ry="20.418" transform="rotate(-22.32 47.597 73.938)"/>
  <ellipse cx="9.627" cy="103.449" fill="#593D2C" rx="9.559" ry="20.418" transform="rotate(-.191 9.627 103.449)"/>
  <ellipse cx="64.449" cy="88.111" fill="#593D2C" rx="7.337" ry="18.009" transform="rotate(-95.77 64.449 88.11)"/>
  <ellipse cx="36" cy="85.5" fill="#6C4A36" rx="14" ry="47.5"/>
  <ellipse cx="9.678" cy="118.506" fill="#DE827A" rx="9.559" ry="5.36" transform="rotate(-.191 9.678 118.506)"/>
  <ellipse cx="8.086" cy="33.053" fill="#2C2C2C" rx="8.086" ry="33.053" transform="matrix(.99998 -.00657 .01336 .99991 17.804 109.17)"/>
  <ellipse cx="8.091" cy="32.291" fill="#2C2C2C" rx="8.091" ry="32.291" transform="matrix(.99852 -.05435 .02761 .99962 34 108.88)"/>
  <ellipse cx="34.501" cy="30.5" fill="#DE827A" rx="22.5" ry="25.5"/>
  <ellipse cx="37.001" cy="9" fill="#2C2C2C" rx="25" ry="9"/>
  <ellipse cx="13.501" cy="18" fill="#2C2C2C" rx="7.5" ry="9"/>
  <circle cx="31.001" cy="31" r="4" fill="#2C2C2C"/>
  <circle cx="49.001" cy="31" r="4" fill="#2C2C2C"/>
  <rect width="17" height="29" x="64.705" y="67.127" fill="#2D2D2D" rx="3" transform="rotate(6.534 64.705 67.127)"/>
  <ellipse cx="77.257" cy="89.05" fill="#DE827A" rx="9.559" ry="5.36" transform="rotate(-95.77 77.257 89.05)"/>
  <ellipse cx="28" cy="174.5" fill="#D9D9D9" rx="9" ry="5.5"/>
  <ellipse cx="43" cy="174.5" fill="#D9D9D9" rx="9" ry="5.5"/>
</svg>


