<svg xmlns="http://www.w3.org/2000/svg" width="860" height="457" fill="none" viewBox="0 0 860 457">
  <g clip-path="url(#a)">
    <path fill="#E7E7E7" d="M0 0h860v457H0z"/>
    <path fill="#747681" d="M0 367h860v90H0z"/>
    <path fill="#858585" d="m155.5 396 132.935 47.25H22.565L155.5 396Zm432 0 132.935 47.25h-265.87L587.5 396Zm-263 45-132.935-47.25h265.87L324.5 441Zm435 0-132.935-47.25h265.87L759.5 441Z"/>
    <path fill="#BCF3FF" stroke="#2C2C2C" stroke-width="3" d="M553 126.5H219c-7.456 0-13.5 6.044-13.5 13.5v114a3.5 3.5 0 0 0 3.5 3.5h354a3.5 3.5 0 0 0 3.5-3.5V140c0-7.456-6.044-13.5-13.5-13.5Zm433 0H670c-7.456 0-13.5 6.044-13.5 13.5v114a3.5 3.5 0 0 0 3.5 3.5h336a3.5 3.5 0 0 0 3.5-3.5V140c0-7.456-6.044-13.5-13.5-13.5Z"/>
    <path fill="#858585" d="M214 340.84h343V371H214z"/>
    <path fill="#B3B3B3" d="M225 346.426h154v18.989H225zm167 0h154v18.989H392z"/>
    <rect width="377" height="15.638" x="197" y="325.202" fill="#B3B3B3" rx="5"/>
    <path fill="#B3B3B3" d="M204 271a5 5 0 0 1 5-5h354a5 5 0 0 1 5 5v54.202H204V271Z"/>
    <path fill="#4F5A97" d="M214 271a5 5 0 0 1 5-5h42a5 5 0 0 1 5 5v59.787h-52V271Zm175 0a5 5 0 0 1 5-5h42a5 5 0 0 1 5 5v59.787h-52V271Zm-117 0a5 5 0 0 1 5-5h42a5 5 0 0 1 5 5v59.787h-52V271Zm175 0a5 5 0 0 1 5-5h42a5 5 0 0 1 5 5v59.787h-52V271Zm-117 0a5 5 0 0 1 5-5h42a5 5 0 0 1 5 5v59.787h-52V271Zm175 0a5 5 0 0 1 5-5h42a5 5 0 0 1 5 5v59.787h-52V271Z"/>
    <path fill="#000" fill-opacity=".2" d="M204 320.734h364v4.468H204z"/>
    <path fill="#858585" d="M665 340.84h343V371H665z"/>
    <path fill="#B3B3B3" d="M676 346.426h154v18.989H676zm167 0h154v18.989H843z"/>
    <rect width="377" height="15.638" x="648" y="325.202" fill="#B3B3B3" rx="5"/>
    <path fill="#B3B3B3" d="M655 271a5 5 0 0 1 5-5h354c2.76 0 5 2.239 5 5v54.202H655V271Z"/>
    <path fill="#4F5A97" d="M665 271a5 5 0 0 1 5-5h42a5 5 0 0 1 5 5v59.787h-52V271Zm175 0a5 5 0 0 1 5-5h42a5 5 0 0 1 5 5v59.787h-52V271Zm-117 0a5 5 0 0 1 5-5h42a5 5 0 0 1 5 5v59.787h-52V271Zm58 0a5 5 0 0 1 5-5h42a5 5 0 0 1 5 5v59.787h-52V271Z"/>
    <path fill="#000" fill-opacity=".2" d="M655 320.734h364v4.468H655z"/>
    <rect width="31" height="55" x="167.5" y="166.5" fill="#fff" stroke="#747681" stroke-width="3" rx="3.5"/>
    <path stroke="#747681" stroke-width="2" d="M173 175h20m-20 10.2h20m-20-6.8h20m-20 10.2h20m-20-6.8h16.8M173 192h16.8m-16.8 4h20m-20 10.2h20m-20-6.8h20m-20 10.2h20m-20-6.8h16.8M173 213h16.8"/>
    <rect width="31" height="55" x="618.5" y="166.5" fill="#fff" stroke="#747681" stroke-width="3" rx="3.5"/>
    <path stroke="#747681" stroke-width="2" d="M624 175h20m-20 10.2h20m-20-6.8h20m-20 10.2h20m-20-6.8h16.8M624 192h16.8m-16.8 4h20m-20 10.2h20m-20-6.8h20m-20 10.2h20m-20-6.8h16.8M624 213h16.8"/>
    <path fill="#B3B3B3" d="M0 63h860v12H0z"/>
    <path fill="#333B66" d="M18 98.466h-37v6.638h37z"/>
    <rect width="19" height="10.431" fill="#232950" rx="2" transform="matrix(-1 0 0 1 32 96.569)"/>
    <ellipse cx="5.5" cy="5.216" fill="#222950" rx="5.5" ry="5.216" transform="matrix(-1 0 0 1 11 52)"/>
    <path fill="#333B66" d="M9 98.466v-41.07a3.5 3.5 0 0 0-7 0v41.07h7Zm171-.017h680v6.636H180z"/>
    <rect width="19" height="10.427" x="161" y="96.553" fill="#232950" rx="2"/>
    <ellipse cx="187.5" cy="57.214" fill="#222950" rx="5.5" ry="5.214"/>
    <path fill="#333B66" d="M184 98.45V57.395a3.5 3.5 0 1 1 7 0v41.053h-7Z"/>
    <ellipse cx="562.5" cy="57.214" fill="#222950" rx="5.5" ry="5.214"/>
    <ellipse cx="660.5" cy="57.214" fill="#222950" rx="5.5" ry="5.214"/>
    <path fill="#333B66" d="M559 98.45V57.395a3.5 3.5 0 1 1 7 0v41.053h-7Z"/>
    <ellipse cx="611.5" cy="103.663" fill="#222950" rx="5.5" ry="5.214"/>
    <path fill="#333B66" d="M608 395.156V103.845a3.5 3.5 0 1 1 7 0v291.311h-7ZM657 98.45V57.395a3.5 3.5 0 1 1 7 0v41.053h-7Z"/>
    <path fill="#222950" d="M606 393.26h11V398h-11z"/>
    <rect width="21" height="10.427" x="552" y="96.553" fill="#232950" rx="2"/>
    <rect width="21" height="10.427" x="650" y="96.553" fill="#232950" rx="2"/>
    <rect width="12" height="11" x="217" y="96" fill="#747681" rx="3"/>
    <path fill="#747681" d="M221 107h4v19h-4z"/>
    <circle cx="223" cy="139" r="12.5" stroke="#4F5A97" stroke-width="3"/>
    <rect width="12" height="11" x="350" y="96" fill="#747681" rx="3"/>
    <path fill="#747681" d="M354 107h4v19h-4z"/>
    <circle cx="356" cy="139" r="12.5" stroke="#4F5A97" stroke-width="3"/>
    <rect width="12" height="11" x="499" y="96" fill="#747681" rx="3"/>
    <path fill="#747681" d="M503 107h4v19h-4z"/>
    <circle cx="505" cy="139" r="12.5" stroke="#4F5A97" stroke-width="3"/>
    <rect width="12" height="11" x="284" y="96" fill="#747681" rx="3"/>
    <path fill="#747681" d="M288 107h4v19h-4z"/>
    <circle cx="290" cy="139" r="12.5" stroke="#4F5A97" stroke-width="3"/>
    <rect width="12" height="11" x="430" y="96" fill="#747681" rx="3"/>
    <path fill="#747681" d="M434 107h4v19h-4z"/>
    <circle cx="436" cy="139" r="12.5" stroke="#4F5A97" stroke-width="3"/>
    <rect width="12" height="11" x="711" y="96" fill="#747681" rx="3"/>
    <path fill="#747681" d="M715 107h4v19h-4z"/>
    <circle cx="717" cy="139" r="12.5" stroke="#4F5A97" stroke-width="3"/>
    <rect width="12" height="11" x="779" y="96" fill="#747681" rx="3"/>
    <path fill="#747681" d="M783 107h4v19h-4z"/>
    <circle cx="785" cy="139" r="12.5" stroke="#4F5A97" stroke-width="3"/>
    <rect width="12" height="11" x="854" y="96" fill="#747681" rx="3"/>
    <path fill="#747681" d="M858 107h4v19h-4z"/>
    <circle cx="860" cy="139" r="12.5" stroke="#4F5A97" stroke-width="3"/>
    <rect width="134" height="38" x="234" y="11" fill="#B3B3B3" rx="5"/>
    <rect width="122" height="4" x="240" y="40" fill="#747681" rx="2"/>
    <rect width="122" height="4" x="240" y="28" fill="#747681" rx="2"/>
    <rect width="122" height="4" x="240" y="16" fill="#747681" rx="2"/>
    <rect width="122" height="4" x="240" y="34" fill="#747681" rx="2"/>
    <rect width="122" height="4" x="240" y="22" fill="#747681" rx="2"/>
    <rect width="134" height="38" x="544" y="11" fill="#B3B3B3" rx="5"/>
    <rect width="122" height="4" x="550" y="40" fill="#747681" rx="2"/>
    <rect width="122" height="4" x="550" y="28" fill="#747681" rx="2"/>
    <rect width="122" height="4" x="550" y="16" fill="#747681" rx="2"/>
    <rect width="122" height="4" x="550" y="34" fill="#747681" rx="2"/>
    <rect width="122" height="4" x="550" y="22" fill="#747681" rx="2"/>
    <rect width="134" height="38" x="699" y="11" fill="#B3B3B3" rx="5"/>
    <rect width="122" height="4" x="705" y="40" fill="#747681" rx="2"/>
    <rect width="122" height="4" x="705" y="28" fill="#747681" rx="2"/>
    <rect width="122" height="4" x="705" y="16" fill="#747681" rx="2"/>
    <rect width="122" height="4" x="705" y="34" fill="#747681" rx="2"/>
    <rect width="122" height="4" x="705" y="22" fill="#747681" rx="2"/>
    <rect width="134" height="38" x="389" y="11" fill="#B3B3B3" rx="5"/>
    <rect width="122" height="4" x="395" y="40" fill="#747681" rx="2"/>
    <rect width="122" height="4" x="395" y="28" fill="#747681" rx="2"/>
    <rect width="122" height="4" x="395" y="16" fill="#747681" rx="2"/>
    <rect width="122" height="4" x="395" y="34" fill="#747681" rx="2"/>
    <rect width="122" height="4" x="395" y="22" fill="#747681" rx="2"/>
    <rect width="156" height="38" x="18.5" y="12.5" fill="#fff" stroke="#747681" stroke-width="3" rx="1.5"/>
    <rect width="102" height="2" x="44" y="31" fill="#4F5A97" rx="1"/>
    <rect width="133" height="2" x="35" y="33" fill="#ECFF14" rx="1"/>
    <rect width="19.777" height="2" x="145.414" y="31" fill="#4F5A97" rx="1" transform="rotate(45 145.414 31)"/>
    <rect width="15" height="2" x="46" y="18" fill="#4F5A97" rx="1" transform="rotate(90 46 18)"/>
    <rect width="15" height="2" x="36.99" y="34.732" fill="#ECFF14" rx="1" transform="rotate(150 36.99 34.732)"/>
    <circle cx="64" cy="33" r="2.5" fill="#fff" stroke="#747681"/>
    <circle cx="45" cy="33" r="2.5" fill="#fff" stroke="#747681"/>
    <circle cx="45" cy="19" r="2.5" fill="#fff" stroke="#747681"/>
    <circle cx="31" cy="37" r="2.5" fill="#fff" stroke="#747681"/>
    <circle cx="24" cy="42" r="2.5" fill="#fff" stroke="#747681"/>
    <circle cx="81" cy="33" r="2.5" fill="#fff" stroke="#747681"/>
    <circle cx="98" cy="33" r="2.5" fill="#fff" stroke="#747681"/>
    <circle cx="109" cy="33" r="2.5" fill="#fff" stroke="#747681"/>
    <circle cx="117" cy="33" r="2.5" fill="#fff" stroke="#747681"/>
    <circle cx="136" cy="33" r="2.5" fill="#fff" stroke="#747681"/>
    <circle cx="146" cy="33" r="2.5" fill="#fff" stroke="#747681"/>
    <circle cx="157" cy="44" r="2.5" fill="#fff" stroke="#747681"/>
    <circle cx="166" cy="34" r="2.5" fill="#fff" stroke="#747681"/>
    <path fill="#B3B3B3" d="M35 258h59v106H35z"/>
    <path fill="#B3B3B3" d="M35 132h6v232h-6zm53-4h6v236h-6z"/>
    <path fill="#B3B3B3" d="M38 128h51v11H38z"/>
    <path stroke="#2C2C2C" stroke-width="3" d="M47 126.5h48.5v239h-62V140c0-7.456 6.044-13.5 13.5-13.5Z"/>
    <rect width="46" height="120.642" x="41.5" y="138.124" fill="#BCF3FF" stroke="#2C2C2C" stroke-width="3" rx="3.5"/>
    <path fill="#B3B3B3" d="M156 258H97v106h59z"/>
    <path fill="#B3B3B3" d="M156 132h-6v232h6zm-53-4h-6v236h6z"/>
    <path fill="#B3B3B3" d="M153 128h-51v11h51z"/>
    <path stroke="#2C2C2C" stroke-width="3" d="M144 126.5H95.5v239h62V140c0-7.456-6.044-13.5-13.5-13.5Z"/>
    <rect width="46" height="120.642" x="-1.5" y="1.5" fill="#BCF3FF" stroke="#2C2C2C" stroke-width="3" rx="3.5" transform="matrix(-1 0 0 1 148 136.624)"/>
    <path fill="#D9D9D9" d="M45 285a5 5 0 0 1 5-5h29a5 5 0 0 1 5 5v60a5 5 0 0 1-5 5H50a5 5 0 0 1-5-5v-60Z"/>
    <rect width="39" height="70" x="107" y="280" fill="#D9D9D9" rx="5"/>
  </g>
  <defs>
    <clipPath id="a">
      <path fill="#fff" d="M0 0h860v457H0z"/>
    </clipPath>
  </defs>
</svg>
